<?xml version="1.0" encoding="iso-8859-1"?>
<!-- Uploaded to: SVG Repo, www.svgrepo.com, Generator: SVG Repo Mixer Tools -->
<svg height="800px" width="800px" version="1.1" id="Layer_1" xmlns="http://www.w3.org/2000/svg" xmlns:xlink="http://www.w3.org/1999/xlink" 
	 viewBox="0 0 295.996 295.996" xml:space="preserve">
<g>
	<path style="fill:#FFCE00;" d="M270.996,123.998c0-11.334-1.363-22.348-3.907-32.9c-7.269-15.152-17.35-28.708-29.558-39.996
		c-22.391-13.376-48.766-20.666-76.771-19.645C83.492,34.273,23.139,99.196,25.955,176.463c0.412,11.304,2.17,22.239,5.087,32.673
		c6.303,12.01,14.397,22.938,23.934,32.42c21.892,14.189,47.99,22.44,76.022,22.44C208.316,263.996,270.996,201.316,270.996,123.998
		z M197.497,98.998c8.836,0,16,7.164,16,16s-7.164,16-16,16s-16-7.164-16-16S188.661,98.998,197.497,98.998z M98.497,98.998
		c8.836,0,16,7.164,16,16s-7.164,16-16,16s-16-7.164-16-16S89.661,98.998,98.497,98.998z M98.498,247.898
		c-22.475,0-40.76-18.285-40.76-40.76c0-9.527,5.948-21.439,18.185-36.416c8.415-10.301,16.723-18.2,17.072-18.532l5.503-5.216
		l5.504,5.217c0.349,0.331,8.655,8.231,17.07,18.531c4.315,5.282,7.832,10.175,10.598,14.724
		c11.514-2.112,23.482-2.061,35.242,0.397c21.262,4.447,40.354,16.391,53.756,33.631l-12.631,9.82
		c-11.078-14.249-26.847-24.118-44.4-27.789c-8.404-1.758-16.936-2.017-25.244-0.928c0.565,2.302,0.863,4.491,0.863,6.561
		C139.256,229.613,120.972,247.898,98.498,247.898z"/>
	<path style="fill:#FFB100;" d="M267.089,91.098c2.544,10.553,3.907,21.566,3.907,32.9c0,77.318-62.68,139.998-139.998,139.998
		c-28.032,0-54.131-8.251-76.022-22.44c23.88,23.744,56.767,38.44,93.022,38.44c72.784,0,131.998-59.214,131.998-131.998
		C279.996,127.636,275.358,108.337,267.089,91.098z"/>
	<path style="fill:#FFE454;" d="M160.76,31.457c28.006-1.021,54.381,6.269,76.771,19.645C213.985,29.328,182.521,16,147.998,16
		C75.214,16,16,75.214,16,147.998c0,22.049,5.442,42.849,15.042,61.138c-2.917-10.434-4.675-21.369-5.087-32.673
		C23.139,99.196,83.492,34.273,160.76,31.457z"/>
	<path d="M147.998,0C66.392,0,0,66.392,0,147.998s66.392,147.998,147.998,147.998s147.998-66.392,147.998-147.998
		S229.605,0,147.998,0z M147.998,279.996c-36.256,0-69.143-14.696-93.022-38.44c-9.536-9.482-17.631-20.41-23.934-32.42
		C21.442,190.847,16,170.047,16,147.998C16,75.214,75.214,16,147.998,16c34.523,0,65.987,13.328,89.533,35.102
		c12.208,11.288,22.289,24.844,29.558,39.996c8.27,17.239,12.907,36.538,12.907,56.9
		C279.996,220.782,220.782,279.996,147.998,279.996z"/>
	<circle cx="98.497" cy="114.998" r="16"/>
	<circle cx="197.497" cy="114.998" r="16"/>
	<path style="fill:#28E0FF;" d="M98.501,169.292c-11.662,12.173-24.763,29.174-24.763,37.847c0,13.652,11.107,24.76,24.76,24.76
		c13.651,0,24.758-11.107,24.758-24.76C123.256,198.445,110.16,181.453,98.501,169.292z"/>
	<path d="M138.393,200.578c8.309-1.089,16.84-0.83,25.244,0.928c17.554,3.671,33.322,13.54,44.4,27.789l12.631-9.82
		c-13.402-17.24-32.494-29.184-53.756-33.631c-11.76-2.458-23.729-2.51-35.242-0.397c-2.766-4.549-6.282-9.441-10.598-14.724
		c-8.415-10.3-16.722-18.2-17.07-18.531l-5.504-5.217l-5.503,5.216c-0.35,0.332-8.657,8.231-17.072,18.532
		c-12.236,14.977-18.185,26.889-18.185,36.416c0,22.475,18.285,40.76,40.76,40.76c22.474,0,40.758-18.285,40.758-40.76
		C139.256,205.069,138.957,202.88,138.393,200.578z M98.498,231.898c-13.652,0-24.76-11.107-24.76-24.76
		c0-8.673,13.101-25.674,24.763-37.847c11.659,12.161,24.755,29.153,24.755,37.847C123.256,220.791,112.149,231.898,98.498,231.898z
		"/>
</g>
</svg>